<svg xmlns="http://www.w3.org/2000/svg" width="24" height="24" viewBox="0 0 24 24" fill="#FFFFFF">
  <path d="M21,12.5c0,0.41-0.34,0.75-0.75,0.75H13.5v6.75c0,0.41-0.34,0.75-0.75,0.75s-0.75-0.34-0.75-0.75V13.25H4.75
  C4.34,13.25,4,12.91,4,12.5s0.34-0.75,0.75-0.75H12V4C12,3.59,12.34,3.25,12.75,3.25S13.5,3.59,13.5,4v7.75H20.25
  C20.66,11.75,21,12.09,21,12.5z" transform="rotate(45, 12, 12)"/>
  <circle cx="12" cy="12" r="9" stroke="#FFFFFF" stroke-width="2" fill="none"/>
  <circle cx="12" cy="12" r="4.5" fill="#3498db"/>
</svg> 