<?xml version="1.0" encoding="UTF-8" standalone="no"?>
<svg width="512" height="512" viewBox="0 0 512 512" xmlns="http://www.w3.org/2000/svg">
  <style>
    .logo { fill: #ffffff; }
    .background { fill: none; }
  </style>
  
  <!-- Circular background -->
  <circle class="background" cx="256" cy="256" r="240" stroke="#ffffff" stroke-width="8" />
  
  <!-- Outer ring with subtle gap -->
  <path class="logo" d="M256,32 A224,224 0 1,1 255.9,32 M256,32 A224,224 0 1,0 256.1,32" 
        stroke="#ffffff" stroke-width="12" fill="none" />
  
  <!-- Inner orbital rings -->
  <ellipse class="logo" cx="256" cy="256" rx="180" ry="120" 
           stroke="#ffffff" stroke-width="6" fill="none" transform="rotate(30, 256, 256)" />
  <ellipse class="logo" cx="256" cy="256" rx="150" ry="180" 
           stroke="#ffffff" stroke-width="6" fill="none" transform="rotate(-15, 256, 256)" />
  
  <!-- Central planet/hub -->
  <circle cx="256" cy="256" r="60" fill="#ffffff" />
  
  <!-- Data nodes on orbital paths -->
  <circle cx="86" cy="256" r="16" fill="#ffffff" />
  <circle cx="426" cy="256" r="16" fill="#ffffff" />
  <circle cx="166" cy="136" r="14" fill="#ffffff" />
  <circle cx="346" cy="376" r="14" fill="#ffffff" />
  <circle cx="346" cy="136" r="14" fill="#ffffff" />
  <circle cx="166" cy="376" r="14" fill="#ffffff" />
  
  <!-- Connecting lines for data flow -->
  <line x1="106" y1="256" x2="196" y2="256" stroke="#ffffff" stroke-width="5" />
  <line x1="316" y1="256" x2="406" y2="256" stroke="#ffffff" stroke-width="5" />
  <line x1="256" y1="196" x2="256" y2="106" stroke="#ffffff" stroke-width="5" transform="rotate(30, 256, 256)" />
  <line x1="256" y1="316" x2="256" y2="406" stroke="#ffffff" stroke-width="5" transform="rotate(30, 256, 256)" />
  
  <!-- "33" Numeric identifier -->
  <text x="256" y="270" font-family="Arial, sans-serif" font-weight="bold" font-size="72" 
        text-anchor="middle" fill="#000000">33</text>
</svg> 